<svg width="61" height="49" viewBox="0 0 61 49" fill="none" xmlns="http://www.w3.org/2000/svg">
    <path d="M58 39.8571V15.2857C58 11.8931 55.264 9.14286 51.8889 9.14286H44.25C42.5625 9.14286 41.1944 7.76773 41.1944 6.07143C41.1944 4.37513 39.8264 3 38.1389 3H22.8611C21.1736 3 19.8056 4.37513 19.8056 6.07143C19.8056 7.76773 18.4375 9.14286 16.75 9.14286H9.11111C5.73604 9.14286 3 11.8931 3 15.2857V39.8571C3 43.2497 5.73604 46 9.11111 46H51.8889C55.264 46 58 43.2497 58 39.8571Z" stroke="white" stroke-width="5"/>
    <path d="M39.6667 27.5714C39.6667 32.6603 35.5626 36.7857 30.5 36.7857C25.4374 36.7857 21.3333 32.6603 21.3333 27.5714C21.3333 22.4825 25.4374 18.3571 30.5 18.3571C35.5626 18.3571 39.6667 22.4825 39.6667 27.5714Z" stroke="white" stroke-width="5"/>
</svg>
