<svg width="28" height="29" viewBox="0 0 28 29" fill="none" xmlns="http://www.w3.org/2000/svg">
    <path d="M12.5979 15.5116C8.32204 15.5116 4.84204 12.0316 4.84204 7.75581C4.84204 3.48 8.32204 0 12.5979 0C16.8737 0 20.3537 3.48 20.3537 7.75581C20.3537 12.0316 16.8737 15.5116 12.5979 15.5116ZM12.5979 2.02326C9.44158 2.02326 6.8653 4.59953 6.8653 7.75581C6.8653 10.9121 9.44158 13.4884 12.5979 13.4884C15.7541 13.4884 18.3304 10.9121 18.3304 7.75581C18.3304 4.59953 15.7541 2.02326 12.5979 2.02326Z" fill="#FC9025"/>
    <path d="M1.01163 29C0.458605 29 0 28.5414 0 27.9884C0 22.2289 5.65162 17.5349 12.5981 17.5349C13.9605 17.5349 15.2958 17.7103 16.5907 18.0745C17.1302 18.2229 17.4405 18.7759 17.2921 19.3154C17.1437 19.8549 16.5907 20.1652 16.0512 20.0168C14.9451 19.7066 13.7851 19.5582 12.5981 19.5582C6.77116 19.5582 2.02326 23.3349 2.02326 27.9884C2.02326 28.5414 1.56465 29 1.01163 29Z" fill="#FC9025"/>
    <path d="M20.6909 29C19.0993 29 17.5886 28.4065 16.4151 27.3409C15.943 26.9363 15.5249 26.4372 15.2011 25.8842C14.6076 24.913 14.2839 23.7665 14.2839 22.593C14.2839 20.907 14.9314 19.3288 16.0914 18.1284C17.3053 16.8739 18.9374 16.186 20.6909 16.186C22.5253 16.186 24.2653 16.9684 25.4523 18.3172C26.5044 19.4907 27.0979 21.0014 27.0979 22.593C27.0979 23.1056 27.0305 23.6181 26.8956 24.1037C26.7607 24.7107 26.5044 25.3447 26.1537 25.8977C25.0342 27.813 22.93 29 20.6909 29ZM20.6909 18.2093C19.4904 18.2093 18.3844 18.6814 17.5481 19.5311C16.7523 20.3539 16.3072 21.433 16.3072 22.593C16.3072 23.3888 16.523 24.1711 16.9411 24.8455C17.157 25.2232 17.4402 25.5604 17.7639 25.8437C18.5732 26.5855 19.6118 26.9902 20.6909 26.9902C22.2151 26.9902 23.6584 26.1809 24.4407 24.8726C24.67 24.4949 24.8453 24.0633 24.9397 23.6451C25.0342 23.2944 25.0746 22.9572 25.0746 22.6065C25.0746 21.5274 24.67 20.4889 23.9416 19.6796C23.1323 18.7354 21.9453 18.2093 20.6909 18.2093Z" fill="#FC9025"/>
    <path d="M22.7138 23.5777H18.6808C18.1278 23.5777 17.6692 23.1191 17.6692 22.5661C17.6692 22.013 18.1278 21.5544 18.6808 21.5544H22.7138C23.2669 21.5544 23.7255 22.013 23.7255 22.5661C23.7255 23.1191 23.2669 23.5777 22.7138 23.5777Z" fill="#FC9025"/>
    <path d="M20.6911 25.6415C20.138 25.6415 19.6794 25.1829 19.6794 24.6298V20.5968C19.6794 20.0438 20.138 19.5852 20.6911 19.5852C21.2441 19.5852 21.7027 20.0438 21.7027 20.5968V24.6298C21.7027 25.1964 21.2441 25.6415 20.6911 25.6415Z" fill="#FC9025"/>
</svg>
