<svg width="25" height="22" viewBox="0 0 25 22" fill="none" xmlns="http://www.w3.org/2000/svg">
    <path d="M18.314 22H6.68605C2.44186 22 0 19.5027 0 15.1622V6.83784C0 2.4973 2.44186 0 6.68605 0H18.314C22.5581 0 25 2.4973 25 6.83784V15.1622C25 19.5027 22.5581 22 18.314 22ZM6.68605 1.78378C3.36047 1.78378 1.74419 3.43676 1.74419 6.83784V15.1622C1.74419 18.5632 3.36047 20.2162 6.68605 20.2162H18.314C21.6395 20.2162 23.2558 18.5632 23.2558 15.1622V6.83784C23.2558 3.43676 21.6395 1.78378 18.314 1.78378H6.68605Z" fill="#6F6D6D"/>
    <path d="M12.5039 12C11.5542 12 10.5932 11.6628 9.85834 10.9753L6.31962 7.73266C5.95784 7.39542 5.89001 6.7858 6.18396 6.37074C6.47791 5.95568 7.00928 5.87786 7.37107 6.2151L10.9098 9.45776C11.769 10.249 13.2274 10.249 14.0867 9.45776L17.6254 6.2151C17.9872 5.87786 18.5299 5.94271 18.8125 6.37074C19.1065 6.7858 19.0499 7.40839 18.6768 7.73266L15.1381 10.9753C14.4146 11.6628 13.4536 12 12.5039 12Z" fill="#6F6D6D"/>
</svg>
