<svg width="20" height="17" viewBox="0 0 20 17" fill="none" xmlns="http://www.w3.org/2000/svg">
    <path d="M10 13C7.79215 13 6 10.9838 6 8.5C6 6.01617 7.79215 4 10 4C12.2079 4 14 6.01617 14 8.5C14 10.9838 12.2079 13 10 13ZM10 5.55889C8.55889 5.55889 7.38568 6.87875 7.38568 8.5C7.38568 10.1212 8.55889 11.4411 10 11.4411C11.4411 11.4411 12.6143 10.1212 12.6143 8.5C12.6143 6.87875 11.4411 5.55889 10 5.55889Z" fill="#6F6D6D"/>
    <path d="M10.0047 17C6.43738 17 3.06926 14.9268 0.754269 11.3271C-0.251423 9.77217 -0.251423 7.23725 0.754269 5.67295C3.07875 2.07317 6.44687 0 10.0047 0C13.5626 0 16.9307 2.07317 19.2457 5.67295C20.2514 7.22783 20.2514 9.76275 19.2457 11.3271C16.9307 14.9268 13.5626 17 10.0047 17ZM10.0047 1.41353C6.94023 1.41353 4.00854 3.24169 1.9592 6.43625C1.24763 7.5388 1.24763 9.4612 1.9592 10.5637C4.00854 13.7583 6.94023 15.5865 10.0047 15.5865C13.0693 15.5865 16.0009 13.7583 18.0503 10.5637C18.7619 9.4612 18.7619 7.5388 18.0503 6.43625C16.0009 3.24169 13.0693 1.41353 10.0047 1.41353Z" fill="#6F6D6D"/>
</svg>
