<svg width="23" height="24" viewBox="0 0 23 24" fill="none" xmlns="http://www.w3.org/2000/svg">
    <path d="M8.18497 12C8.15029 12 8.12717 12 8.09249 12C8.03468 11.9884 7.95376 11.9884 7.88439 12C4.53179 11.8959 2 9.25747 2 6.00579C2 2.69624 4.69364 0 8 0C11.3064 0 14 2.69624 14 6.00579C13.9884 9.25747 11.4451 11.8959 8.21965 12C8.20809 12 8.19653 12 8.18497 12ZM8 1.73578C5.65318 1.73578 3.7341 3.6567 3.7341 6.00579C3.7341 8.32015 5.53757 10.1832 7.83815 10.2642C7.90751 10.2527 8.0578 10.2527 8.20809 10.2642C10.474 10.1601 12.2543 8.29701 12.2659 6.00579C12.2659 3.6567 10.3468 1.73578 8 1.73578Z" fill="white"/>
    <path d="M16.1379 12C16.1025 12 16.0671 12 16.0316 11.9882C15.5478 12.0353 15.0521 11.6941 15.0049 11.2118C14.9577 10.7294 15.2528 10.2941 15.7366 10.2353C15.8782 10.2235 16.0316 10.2235 16.1615 10.2235C17.8845 10.1294 19.2298 8.71765 19.2298 6.98824C19.2298 5.2 17.7782 3.75294 15.9844 3.75294C15.5006 3.76471 15.0993 3.36471 15.0993 2.88235C15.0993 2.4 15.5006 2 15.9844 2C18.7459 2 21 4.24706 21 7C21 9.70588 18.8758 11.8941 16.1733 12C16.1615 12 16.1497 12 16.1379 12Z" fill="white"/>
    <path d="M8 24C5.92867 24 3.84676 23.4561 2.27213 22.3684C0.803171 21.3676 0 19.997 0 18.5068C0 17.0166 0.803171 15.6351 2.27213 14.6235C5.44254 12.4588 10.5786 12.4588 13.7279 14.6235C15.1863 15.6242 16 16.9948 16 18.485C16 19.9753 15.1968 21.3567 13.7279 22.3684C12.1427 23.4561 10.0713 24 8 24ZM3.14927 15.9941C2.13474 16.6902 1.5852 17.5822 1.5852 18.5177C1.5852 19.4423 2.14531 20.3342 3.14927 21.0195C5.78071 22.8361 10.2193 22.8361 12.8507 21.0195C13.8653 20.3234 14.4148 19.4314 14.4148 18.4959C14.4148 17.5713 13.8547 16.6794 12.8507 15.9941C10.2193 14.1884 5.78071 14.1884 3.14927 15.9941Z" fill="white"/>
    <path d="M17.9638 22C17.5107 22 17.1093 21.7443 17.0187 21.3607C16.9152 20.9238 17.2518 20.5082 17.7696 20.4123C18.5852 20.2738 19.3361 20.0074 19.9187 19.6345C20.6567 19.1763 21.058 18.6009 21.058 17.9935C21.058 17.3862 20.6567 16.8108 19.9317 16.3632C19.362 16.0009 18.65 15.7452 17.8085 15.5854C17.2906 15.4895 16.954 15.0632 17.0705 14.6264C17.187 14.2001 17.7049 13.9231 18.2357 14.019C19.3491 14.2215 20.3201 14.5837 21.1098 15.0846C22.3138 15.8304 23 16.8853 23 17.9935C23 19.1017 22.3009 20.1566 21.0969 20.9131C20.2942 21.4246 19.2844 21.7975 18.171 21.9787C18.0933 22 18.0285 22 17.9638 22Z" fill="white"/>
</svg>
