<svg width="15" height="17" viewBox="0 0 15 17" fill="none" xmlns="http://www.w3.org/2000/svg">
    <path d="M13.8794 7.68305C13.9375 7.7411 13.9836 7.81003 14.0151 7.8859C14.0465 7.96178 14.0627 8.04311 14.0627 8.12524C14.0627 8.20738 14.0465 8.28871 14.0151 8.36458C13.9836 8.44045 13.9375 8.50938 13.8794 8.56743L7.46925 14.9737C6.64863 15.7942 5.53568 16.2551 4.37522 16.255C3.21477 16.255 2.10187 15.7939 1.28136 14.9733C0.460845 14.1527 -7.32354e-05 13.0397 8.72804e-09 11.8793C7.32529e-05 10.7188 0.461132 9.60591 1.28175 8.7854L9.03644 0.916649C9.62229 0.330168 10.4171 0.000439978 11.2461 4.39999e-07C12.0751 -0.000439098 12.8703 0.328446 13.4567 0.914305C14.0432 1.50016 14.373 2.29501 14.3734 3.12398C14.3738 3.95295 14.045 4.74814 13.4591 5.33462L5.70284 13.2034C5.3506 13.5556 4.87286 13.7535 4.37472 13.7535C3.87657 13.7535 3.39883 13.5556 3.04659 13.2034C2.69435 12.8511 2.49647 12.3734 2.49647 11.8752C2.49647 11.3771 2.69435 10.8994 3.04659 10.5471L9.5544 3.93618C9.61141 3.87537 9.68001 3.82657 9.75616 3.79266C9.83231 3.75876 9.91447 3.74043 9.99781 3.73875C10.0811 3.73707 10.164 3.75208 10.2414 3.7829C10.3189 3.81371 10.3894 3.85971 10.4488 3.91818C10.5082 3.97665 10.5553 4.04641 10.5874 4.12336C10.6194 4.20031 10.6357 4.2829 10.6354 4.36625C10.635 4.44961 10.618 4.53205 10.5853 4.60873C10.5526 4.68541 10.5049 4.75477 10.445 4.81274L3.93644 11.4307C3.87816 11.4885 3.83185 11.5572 3.80013 11.633C3.76842 11.7087 3.75193 11.7899 3.7516 11.872C3.75127 11.9541 3.76712 12.0354 3.79823 12.1114C3.82934 12.1873 3.87511 12.2564 3.93292 12.3147C3.99073 12.373 4.05946 12.4193 4.13517 12.451C4.21088 12.4827 4.2921 12.4992 4.37418 12.4995C4.45627 12.4999 4.53762 12.484 4.61358 12.4529C4.68954 12.4218 4.75863 12.376 4.81691 12.3182L12.5724 4.45337C12.9246 4.10185 13.1228 3.62481 13.1233 3.12718C13.1238 2.62955 12.9266 2.15209 12.5751 1.79985C12.2236 1.44761 11.7465 1.24944 11.2489 1.24892C10.7513 1.24841 10.2738 1.4456 9.92159 1.79712L2.16847 9.66274C1.87802 9.95273 1.64753 10.2971 1.49017 10.6761C1.3328 11.0552 1.25164 11.4615 1.25131 11.872C1.25099 12.2824 1.3315 12.6889 1.48827 13.0682C1.64503 13.4475 1.87497 13.7922 2.16495 14.0827C2.45494 14.3731 2.79929 14.6036 3.17835 14.761C3.55741 14.9183 3.96376 14.9995 4.37418 14.9998C4.78461 15.0001 5.19109 14.9196 5.5704 14.7629C5.94971 14.6061 6.29443 14.3762 6.58487 14.0862L12.9958 7.67993C13.1134 7.56322 13.2726 7.49799 13.4383 7.49858C13.6039 7.49916 13.7626 7.56552 13.8794 7.68305Z" fill="white"/>
</svg>
