<svg width="15" height="21" viewBox="0 0 15 21" fill="none" xmlns="http://www.w3.org/2000/svg">
    <path d="M3 10.5V4.5C3 3.30653 3.47411 2.16193 4.31802 1.31802C5.16193 0.474106 6.30653 0 7.5 0C8.69347 0 9.83807 0.474106 10.682 1.31802C11.5259 2.16193 12 3.30653 12 4.5V10.5C12 11.6935 11.5259 12.8381 10.682 13.682C9.83807 14.5259 8.69347 15 7.5 15C6.30653 15 5.16193 14.5259 4.31802 13.682C3.47411 12.8381 3 11.6935 3 10.5ZM15 10.5C15 10.3011 14.921 10.1103 14.7803 9.96967C14.6397 9.82902 14.4489 9.75 14.25 9.75C14.0511 9.75 13.8603 9.82902 13.7197 9.96967C13.579 10.1103 13.5 10.3011 13.5 10.5C13.5 12.0913 12.8679 13.6174 11.7426 14.7426C10.6174 15.8679 9.0913 16.5 7.5 16.5C5.9087 16.5 4.38258 15.8679 3.25736 14.7426C2.13214 13.6174 1.5 12.0913 1.5 10.5C1.5 10.3011 1.42098 10.1103 1.28033 9.96967C1.13968 9.82902 0.948912 9.75 0.75 9.75C0.551088 9.75 0.360322 9.82902 0.21967 9.96967C0.0790178 10.1103 0 10.3011 0 10.5C0.00228386 12.3586 0.693677 14.1504 1.94048 15.5288C3.18728 16.9072 4.90091 17.7743 6.75 17.9625V20.25C6.75 20.4489 6.82902 20.6397 6.96967 20.7803C7.11032 20.921 7.30109 21 7.5 21C7.69891 21 7.88968 20.921 8.03033 20.7803C8.17098 20.6397 8.25 20.4489 8.25 20.25V17.9625C10.0991 17.7743 11.8127 16.9072 13.0595 15.5288C14.3063 14.1504 14.9977 12.3586 15 10.5Z" fill="#FC9025"/>
</svg>
