<svg width="4" height="21" viewBox="0 0 4 21" fill="none" xmlns="http://www.w3.org/2000/svg">
    <path d="M3 2.1875C3 1.53166 2.55228 1 2 1C1.44772 1 1 1.53166 1 2.1875C1 2.84334 1.44772 3.375 2 3.375C2.55228 3.375 3 2.84334 3 2.1875Z" stroke="white" stroke-width="2" stroke-linecap="round" stroke-linejoin="round"/>
    <path d="M3 10.5C3 9.84416 2.55228 9.3125 2 9.3125C1.44772 9.3125 1 9.84416 1 10.5C1 11.1558 1.44772 11.6875 2 11.6875C2.55228 11.6875 3 11.1558 3 10.5Z" stroke="white" stroke-width="2" stroke-linecap="round" stroke-linejoin="round"/>
    <path d="M3 18.8125C3 18.1567 2.55228 17.625 2 17.625C1.44772 17.625 1 18.1567 1 18.8125C1 19.4683 1.44772 20 2 20C2.55228 20 3 19.4683 3 18.8125Z" stroke="white" stroke-width="2" stroke-linecap="round" stroke-linejoin="round"/>
</svg>
