<svg width="16" height="17" viewBox="0 0 16 17" fill="none" xmlns="http://www.w3.org/2000/svg">
    <path d="M5.375 12.6667V13.5C5.375 13.8283 5.4429 14.1534 5.57482 14.4567C5.70673 14.76 5.90009 15.0356 6.14384 15.2678C6.3876 15.4999 6.67698 15.6841 6.99546 15.8097C7.31394 15.9353 7.65528 16 8 16C8.34472 16 8.68606 15.9353 9.00454 15.8097C9.32302 15.6841 9.6124 15.4999 9.85616 15.2678C10.0999 15.0356 10.2933 14.76 10.4252 14.4567C10.5571 14.1534 10.625 13.8283 10.625 13.5V12.6667M13.25 6C13.25 8.49999 15 12.6667 15 12.6667H1C1 12.6667 2.75 9.33332 2.75 6C2.75 3.27667 5.1405 1 8 1C10.8595 1 13.25 3.27667 13.25 6Z" stroke="white" stroke-width="1.5" stroke-linecap="round" stroke-linejoin="round"/>
</svg>
