<svg width="25" height="26" viewBox="0 0 25 26" fill="none" xmlns="http://www.w3.org/2000/svg">
    <path d="M19.1667 12C18.7111 12 18.3333 11.5705 18.3333 11.0526V8.52632C18.3333 4.54737 17.3444 1.89474 12.5 1.89474C7.65556 1.89474 6.66667 4.54737 6.66667 8.52632V11.0526C6.66667 11.5705 6.28889 12 5.83333 12C5.37778 12 5 11.5705 5 11.0526V8.52632C5 4.86316 5.77778 0 12.5 0C19.2222 0 20 4.86316 20 8.52632V11.0526C20 11.5705 19.6222 12 19.1667 12Z" fill="#6F6D6D"/>
    <path d="M12.5 22C10.5723 22 9 20.2031 9 18C9 15.7969 10.5723 14 12.5 14C14.4277 14 16 15.7969 16 18C16 20.2031 14.4277 22 12.5 22ZM12.5 15.8462C11.4662 15.8462 10.6154 16.8185 10.6154 18C10.6154 19.1815 11.4662 20.1538 12.5 20.1538C13.5338 20.1538 14.3846 19.1815 14.3846 18C14.3846 16.8185 13.5338 15.8462 12.5 15.8462Z" fill="#6F6D6D"/>
    <path d="M18.314 26H6.68605C1.55814 26 0 24.5111 0 19.6111V17.3889C0 12.4889 1.55814 11 6.68605 11H18.314C23.4419 11 25 12.4889 25 17.3889V19.6111C25 24.5111 23.4419 26 18.314 26ZM6.68605 12.6667C2.52326 12.6667 1.74419 13.4222 1.74419 17.3889V19.6111C1.74419 23.5778 2.52326 24.3333 6.68605 24.3333H18.314C22.4767 24.3333 23.2558 23.5778 23.2558 19.6111V17.3889C23.2558 13.4222 22.4767 12.6667 18.314 12.6667H6.68605Z" fill="#6F6D6D"/>
</svg>
