<svg width="22" height="22" viewBox="0 0 22 22" fill="none" xmlns="http://www.w3.org/2000/svg">
    <path d="M18.8072 20.9922C19.9692 21.097 21.0041 20.1359 20.9994 18.9849V15.9741C21.0116 15.4819 20.8422 15.0024 20.5233 14.6267C19.6239 13.5674 16.5395 12.8898 15.3168 13.15C14.3637 13.3529 13.6969 14.3098 13.045 14.9604C11.8958 14.3082 10.8368 13.5203 9.88895 12.6173M7.01132 8.93871C7.66322 8.2881 8.62208 7.62263 8.82534 6.67142C9.08569 5.45308 8.40903 2.38833 7.35701 1.48538C6.98698 1.16778 6.51386 0.995304 6.02583 1.0001H3.00901C1.85953 1.00118 0.903194 2.03216 1.00785 3.18798C1.00121 11.6084 6.55704 18.5199 14.3333 20.4526" stroke="white" stroke-width="2" stroke-linecap="round" stroke-linejoin="round"/>
</svg>
