<svg width="24" height="24" viewBox="0 0 24 24" fill="none" xmlns="http://www.w3.org/2000/svg">
    <path d="M12 24C11.2298 24 10.5042 23.6104 9.9907 22.9314L8.31628 20.705C8.28279 20.6605 8.14884 20.6048 8.09302 20.5937H7.53488C2.88 20.5937 0 19.3358 0 13.0798V7.51391C0 2.59369 2.60093 0 7.53488 0H16.4651C21.3991 0 24 2.59369 24 7.51391V13.0798C24 18 21.3991 20.5937 16.4651 20.5937H15.907C15.8177 20.5937 15.7395 20.6382 15.6837 20.705L14.0093 22.9314C13.4958 23.6104 12.7702 24 12 24ZM7.53488 1.66976C3.5386 1.66976 1.67442 3.52876 1.67442 7.51391V13.0798C1.67442 18.1113 3.40465 18.9239 7.53488 18.9239H8.09302C8.66233 18.9239 9.30977 19.2468 9.65581 19.7032L11.3302 21.9295C11.7209 22.4416 12.2791 22.4416 12.6698 21.9295L14.3442 19.7032C14.7126 19.2134 15.293 18.9239 15.907 18.9239H16.4651C20.4614 18.9239 22.3256 17.0649 22.3256 13.0798V7.51391C22.3256 3.52876 20.4614 1.66976 16.4651 1.66976H7.53488Z" fill="white"/>
    <path d="M12.5217 12.5218C11.9374 12.5218 11.4783 12.0522 11.4783 11.4783C11.4783 10.9044 11.9478 10.4348 12.5217 10.4348C13.0957 10.4348 13.5652 10.9044 13.5652 11.4783C13.5652 12.0522 13.1061 12.5218 12.5217 12.5218Z" fill="white"/>
    <path d="M16.6956 12.5218C16.1113 12.5218 15.6522 12.0522 15.6522 11.4783C15.6522 10.9044 16.1217 10.4348 16.6956 10.4348C17.2696 10.4348 17.7391 10.9044 17.7391 11.4783C17.7391 12.0522 17.28 12.5218 16.6956 12.5218Z" fill="white"/>
    <path d="M7.30434 12.5218C6.71999 12.5218 6.26086 12.0522 6.26086 11.4783C6.26086 10.9044 6.73043 10.4348 7.30434 10.4348C7.87826 10.4348 8.34782 10.9044 8.34782 11.4783C8.34782 12.0522 7.88869 12.5218 7.30434 12.5218Z" fill="white"/>
</svg>
