<svg width="18" height="18" viewBox="0 0 18 18" fill="none" xmlns="http://www.w3.org/2000/svg">
    <path d="M6.84658 12C6.67806 12 6.50953 11.9379 6.37648 11.8049C5.64915 11.0775 5.25 10.1107 5.25 9.09067C5.25 6.97076 6.97076 5.25 9.09067 5.25C10.1107 5.25 11.0775 5.64915 11.8049 6.37648C11.929 6.50066 12 6.66919 12 6.84658C12 7.02398 11.929 7.19251 11.8049 7.31669L7.31669 11.8049C7.18364 11.9379 7.01511 12 6.84658 12ZM9.09067 6.58049C7.70696 6.58049 6.58049 7.70696 6.58049 9.09067C6.58049 9.53417 6.69579 9.95992 6.90867 10.3325L10.3325 6.90867C9.95992 6.69579 9.53417 6.58049 9.09067 6.58049Z" fill="#6F6D6D"/>
    <path d="M3.44477 14.25C3.30315 14.25 3.15319 14.2007 3.03656 14.1022C2.14517 13.3551 1.34542 12.4356 0.662296 11.3683C-0.220765 10.0137 -0.220765 7.80522 0.662296 6.44237C2.695 3.30618 5.65242 1.5 8.77646 1.5C10.6092 1.5 12.417 2.12395 13.9999 3.29797C14.2748 3.50322 14.3331 3.88909 14.1248 4.16001C13.9165 4.43094 13.525 4.48841 13.2501 4.28316C11.8838 3.26513 10.3343 2.73149 8.77646 2.73149C6.08562 2.73149 3.51142 4.32421 1.71197 7.10737C1.08716 8.06793 1.08716 9.74275 1.71197 10.7033C2.33678 11.6639 3.05323 12.4931 3.84465 13.1663C4.1029 13.388 4.13622 13.7738 3.91129 14.0365C3.79466 14.1761 3.61972 14.25 3.44477 14.25Z" fill="#6F6D6D"/>
    <path d="M8.96905 16.5C7.82893 16.5 6.71453 16.2805 5.64299 15.8497C5.31724 15.7196 5.16294 15.362 5.3001 15.0531C5.43726 14.7442 5.81444 14.5979 6.14019 14.7279C7.04885 15.0937 8.00038 15.2807 8.96048 15.2807C11.7293 15.2807 14.3782 13.7037 16.2298 10.9481C16.8727 9.99703 16.8727 8.33877 16.2298 7.38771C15.9641 6.9894 15.6726 6.60735 15.364 6.24969C15.1411 5.98957 15.184 5.60752 15.4583 5.38804C15.7326 5.1767 16.1355 5.20921 16.367 5.47746C16.7013 5.86764 17.027 6.29033 17.3185 6.72928C18.2272 8.07052 18.2272 10.2571 17.3185 11.6065C15.2269 14.7117 12.1837 16.5 8.96905 16.5Z" fill="#6F6D6D"/>
    <path d="M9.65333 12.75C9.35008 12.75 9.07282 12.5326 9.01217 12.2194C8.94285 11.8628 9.17679 11.5236 9.53203 11.4627C10.4851 11.2887 11.2822 10.4885 11.4555 9.53176C11.5248 9.17514 11.8627 8.949 12.218 9.00988C12.5732 9.07947 12.8071 9.41869 12.7378 9.7753C12.4606 11.28 11.2649 12.4717 9.77463 12.75C9.73131 12.7413 9.69665 12.75 9.65333 12.75Z" fill="#6F6D6D"/>
    <path d="M0.625349 18C0.466397 18 0.307446 17.9415 0.181958 17.816C-0.0606525 17.5735 -0.0606525 17.172 0.181958 16.9295L6.43126 10.6819C6.67387 10.4394 7.07543 10.4394 7.31804 10.6819C7.56065 10.9244 7.56065 11.3259 7.31804 11.5684L1.06874 17.816C0.943251 17.9415 0.7843 18 0.625349 18Z" fill="#6F6D6D"/>
    <path d="M11.1253 7.5C10.9664 7.5 10.8074 7.44145 10.682 7.316C10.4393 7.07346 10.4393 6.67201 10.682 6.42947L16.9313 0.181907C17.1739 -0.0606356 17.5754 -0.0606356 17.818 0.181907C18.0607 0.424449 18.0607 0.825899 17.818 1.06844L11.5687 7.316C11.4433 7.44145 11.2843 7.5 11.1253 7.5Z" fill="#6F6D6D"/>
</svg>
