<svg width="45" height="30" viewBox="0 0 45 30" fill="none" xmlns="http://www.w3.org/2000/svg">
    <path d="M5.72727 28H2V26.1429C2 22.6814 4.37571 19.773 7.59091 18.9483M11.3182 12.8258C9.14669 12.061 7.59091 9.99725 7.59091 7.57142C7.59091 5.14558 9.14669 3.08185 11.3182 2.31701M39.2727 28H43V26.1429C43 22.6814 40.6243 19.773 37.4091 18.9483M33.6818 2.31701C35.8533 3.08185 37.4091 5.14558 37.4091 7.57142C37.4091 9.99725 35.8533 12.061 33.6818 12.8258M18.7727 18.7143H26.2273C30.3443 18.7143 33.6818 22.0402 33.6818 26.1428V28H11.3182V26.1428C11.3182 22.0402 14.6557 18.7143 18.7727 18.7143ZM28.0909 7.57143C28.0909 10.6484 25.5878 13.1429 22.5 13.1429C19.4122 13.1429 16.9091 10.6484 16.9091 7.57143C16.9091 4.49441 19.4122 2 22.5 2C25.5878 2 28.0909 4.49441 28.0909 7.57143Z" stroke="#FC9025" stroke-width="3" stroke-linecap="round" stroke-linejoin="round"/>
</svg>
