<svg width="24" height="24" viewBox="0 0 24 24" fill="none" xmlns="http://www.w3.org/2000/svg">
    <path d="M12 20C11.4533 20 11 19.6222 11 19.1667V15.8333C11 15.3778 11.4533 15 12 15C12.5467 15 13 15.3778 13 15.8333V19.1667C13 19.6222 12.5467 20 12 20Z" fill="white"/>
    <path d="M18.2538 24H5.75339C3.72206 24 1.86931 22.4102 1.53448 20.3776L0.0500502 11.3272C-0.195495 9.9191 0.485334 8.11357 1.59029 7.21648L9.32495 0.914143C10.8205 -0.312258 13.1755 -0.300903 14.6823 0.925498L22.4169 7.21648C23.5107 8.11357 24.1804 9.9191 23.9572 11.3272L22.4728 20.3662C22.1379 22.3762 20.2405 24 18.2538 24ZM11.9925 1.70903C11.4009 1.70903 10.8094 1.89072 10.3741 2.24274L2.63943 8.55644C2.01441 9.06744 1.56796 10.2484 1.7019 11.0547L3.18633 20.0937C3.38723 21.286 4.55915 22.2967 5.75339 22.2967H18.2538C19.4481 22.2967 20.62 21.286 20.8209 20.0823L22.3053 11.0433C22.4281 10.2484 21.9817 9.04472 21.3678 8.54508L13.6331 2.2541C13.1867 1.89072 12.584 1.70903 11.9925 1.70903Z" fill="white"/>
</svg>
