<svg width="11" height="11" viewBox="0 0 11 11" fill="none" xmlns="http://www.w3.org/2000/svg">
    <path d="M5.5 11C5.14698 11 4.81442 10.8214 4.57907 10.5102L3.81163 9.4898C3.79628 9.46939 3.73488 9.44388 3.7093 9.43878H3.45349C1.32 9.43878 0 8.86224 0 5.9949V3.44388C0 1.18878 1.19209 0 3.45349 0H7.54651C9.80791 0 11 1.18878 11 3.44388V5.9949C11 8.25 9.80791 9.43878 7.54651 9.43878H7.2907C7.24977 9.43878 7.21395 9.45918 7.18837 9.4898L6.42093 10.5102C6.18558 10.8214 5.85302 11 5.5 11ZM3.45349 0.765306C1.62186 0.765306 0.767442 1.61735 0.767442 3.44388V5.9949C0.767442 8.30102 1.56047 8.67347 3.45349 8.67347H3.7093C3.97023 8.67347 4.26698 8.82143 4.42558 9.03061L5.19302 10.051C5.37209 10.2857 5.62791 10.2857 5.80698 10.051L6.57442 9.03061C6.74326 8.80612 7.0093 8.67347 7.2907 8.67347H7.54651C9.37814 8.67347 10.2326 7.82143 10.2326 5.9949V3.44388C10.2326 1.61735 9.37814 0.765306 7.54651 0.765306H3.45349Z" fill="white"/>
    <path d="M8.07524 3.38461H2.92474C2.71357 3.38461 2.53845 3.19281 2.53845 2.96153C2.53845 2.73025 2.71357 2.53845 2.92474 2.53845H8.07524C8.28641 2.53845 8.46153 2.73025 8.46153 2.96153C8.46153 3.19281 8.28641 3.38461 8.07524 3.38461Z" fill="white"/>
    <path d="M6.34614 5.92306H2.96153C2.73025 5.92306 2.53845 5.73126 2.53845 5.49998C2.53845 5.2687 2.73025 5.0769 2.96153 5.0769H6.34614C6.57743 5.0769 6.76922 5.2687 6.76922 5.49998C6.76922 5.73126 6.57743 5.92306 6.34614 5.92306Z" fill="white"/>
</svg>
