<svg width="12" height="11" viewBox="0 0 12 11" fill="none" xmlns="http://www.w3.org/2000/svg">
    <path d="M6 11C5.82698 11 5.65954 10.9772 5.52 10.9259C3.38791 10.1793 0 7.52902 0 3.61347C0 1.61865 1.57953 0 3.52186 0C4.46512 0 5.34698 0.376166 6 1.0487C6.65302 0.376166 7.53488 0 8.47814 0C10.4205 0 12 1.62435 12 3.61347C12 7.53472 8.61209 10.1793 6.48 10.9259C6.34047 10.9772 6.17302 11 6 11ZM3.52186 0.854922C2.04279 0.854922 0.837209 2.09171 0.837209 3.61347C0.837209 7.50622 4.50419 9.67202 5.79349 10.1223C5.89395 10.1565 6.11163 10.1565 6.21209 10.1223C7.49581 9.67202 11.1684 7.51192 11.1684 3.61347C11.1684 2.09171 9.96279 0.854922 8.48372 0.854922C7.63535 0.854922 6.84837 1.25959 6.34047 1.96062C6.18419 2.1772 5.82698 2.1772 5.6707 1.96062C5.15163 1.25389 4.37023 0.854922 3.52186 0.854922Z" fill="white"/>
</svg>
