<svg width="22" height="26" viewBox="0 0 22 26" fill="none" xmlns="http://www.w3.org/2000/svg">
    <path d="M11.5 14C7.91652 14 5 10.8591 5 7C5 3.14087 7.91652 0 11.5 0C15.0835 0 18 3.14087 18 7C18 10.8591 15.0835 14 11.5 14ZM11.5 1.82609C8.85478 1.82609 6.69565 4.1513 6.69565 7C6.69565 9.8487 8.85478 12.1739 11.5 12.1739C14.1452 12.1739 16.3043 9.8487 16.3043 7C16.3043 4.1513 14.1452 1.82609 11.5 1.82609Z" fill="#6F6D6D"/>
    <path d="M21.1167 26C20.6338 26 20.2334 25.6 20.2334 25.1176C20.2334 21.0588 16.0878 17.7647 11 17.7647C5.9122 17.7647 1.7666 21.0588 1.7666 25.1176C1.7666 25.6 1.36617 26 0.883298 26C0.400428 26 0 25.6 0 25.1176C0 20.0941 4.93469 16 11 16C17.0653 16 22 20.0941 22 25.1176C22 25.6 21.5996 26 21.1167 26Z" fill="#6F6D6D"/>
</svg>
