<svg width="24" height="24" viewBox="0 0 24 24" fill="none" xmlns="http://www.w3.org/2000/svg">
    <path d="M11.8817 13.4222C11.8598 13.4222 11.827 13.4222 11.8052 13.4222C11.7724 13.4222 11.7287 13.4222 11.6959 13.4222C9.21471 13.3457 7.35657 11.4111 7.35657 9.0283C7.35657 6.60178 9.33494 4.62341 11.7615 4.62341C14.188 4.62341 16.1663 6.60178 16.1663 9.0283C16.1554 11.422 14.2863 13.3457 11.9145 13.4222C11.8926 13.4222 11.8926 13.4222 11.8817 13.4222ZM11.7505 6.25202C10.2203 6.25202 8.98517 7.49806 8.98517 9.01737C8.98517 10.5148 10.1547 11.7281 11.6412 11.7827C11.674 11.7718 11.7833 11.7718 11.8926 11.7827C13.3573 11.7062 14.5049 10.5039 14.5159 9.01737C14.5159 7.49806 13.2808 6.25202 11.7505 6.25202Z" fill="white"/>
    <path d="M11.7509 23.5001C8.81064 23.5001 6.00157 22.4071 3.82646 20.4178C3.62971 20.2429 3.54227 19.9806 3.56413 19.7292C3.70622 18.4285 4.51506 17.2152 5.85948 16.3189C9.11669 14.1548 14.396 14.1548 17.6423 16.3189C18.9867 17.2261 19.7955 18.4285 19.9376 19.7292C19.9704 19.9915 19.872 20.2429 19.6753 20.4178C17.5002 22.4071 14.6911 23.5001 11.7509 23.5001ZM5.28018 19.5106C7.09459 21.0299 9.37901 21.8606 11.7509 21.8606C14.1227 21.8606 16.4072 21.0299 18.2216 19.5106C18.0248 18.8438 17.5002 18.1989 16.7241 17.6743C14.0353 15.8817 9.47739 15.8817 6.76669 17.6743C5.99064 18.1989 5.47692 18.8438 5.28018 19.5106Z" fill="white"/>
    <path d="M11.75 23.5C5.26837 23.5 0 18.2316 0 11.75C0 5.26837 5.26837 0 11.75 0C18.2316 0 23.5 5.26837 23.5 11.75C23.5 18.2316 18.2316 23.5 11.75 23.5ZM11.75 1.63953C6.17558 1.63953 1.63953 6.17558 1.63953 11.75C1.63953 17.3244 6.17558 21.8605 11.75 21.8605C17.3244 21.8605 21.8605 17.3244 21.8605 11.75C21.8605 6.17558 17.3244 1.63953 11.75 1.63953Z" fill="white"/>
</svg>
